<?xml version="1.0" standalone="no"?>
<!DOCTYPE svg PUBLIC "-//W3C//DTD SVG 20010904//EN"
 "http://www.w3.org/TR/2001/REC-SVG-20010904/DTD/svg10.dtd">
<svg version="1.0" xmlns="http://www.w3.org/2000/svg"
 width="3164.000000pt" height="3163.000000pt" viewBox="0 0 3164.000000 3163.000000"
 preserveAspectRatio="xMidYMid meet">

<g transform="translate(0.000000,3163.000000) scale(0.100000,-0.100000)"
fill="#000000" stroke="none">
<path d="M15155 31609 c-4404 -190 -8476 -2169 -11345 -5514 -1634 -1906
-2801 -4196 -3374 -6620 -357 -1513 -492 -3100 -396 -4650 194 -3100 1280
-6040 3148 -8520 2026 -2690 4866 -4671 8077 -5635 2834 -851 5890 -887 8742
-105 4814 1320 8746 4870 10556 9530 561 1446 905 2969 1021 4530 32 427 40
666 40 1190 0 652 -19 1040 -79 1630 -406 3968 -2306 7633 -5325 10275 -2426
2122 -5448 3454 -8635 3804 -644 71 -1135 97 -1810 94 -242 0 -521 -5 -620 -9z
m1159 -1995 c252 -564 456 -1027 454 -1028 -2 -2 -107 -6 -233 -10 l-230 -7
-100 237 -100 237 -120 -7 c-66 -3 -256 -9 -422 -12 -166 -4 -306 -10 -310
-13 -5 -3 -44 -109 -87 -236 -43 -126 -81 -233 -85 -236 -3 -4 -106 -9 -229
-12 -206 -4 -223 -3 -220 12 2 10 174 484 383 1054 l380 1036 60 4 c33 2 137
4 231 5 l171 2 457 -1026z m1321 942 c137 -25 180 -36 178 -47 -3 -24 -153
-853 -157 -872 -6 -24 -44 -51 530 370 l490 360 282 -51 c155 -28 281 -54 279
-58 -1 -4 -210 -152 -465 -329 -257 -178 -461 -326 -459 -333 3 -6 138 -318
301 -693 163 -375 296 -686 296 -691 0 -9 -530 85 -542 96 -4 4 -96 241 -204
527 -108 286 -199 523 -203 527 -5 5 -340 -221 -390 -264 -11 -10 -32 -100
-70 -313 -29 -165 -56 -303 -60 -307 -3 -3 -98 10 -211 31 -153 28 -206 41
-208 52 -2 12 344 1938 363 2017 5 20 10 22 38 17 18 -3 113 -21 212 -39z
m-3415 -1024 c160 -879 184 -1022 171 -1026 -44 -13 -372 -68 -377 -63 -3 3
-71 360 -150 793 -79 433 -145 789 -147 790 -1 2 -29 -373 -62 -831 -57 -804
-60 -834 -80 -839 -116 -26 -386 -68 -394 -61 -4 6 -163 346 -351 757 -189
412 -344 747 -346 745 -1 -1 62 -357 141 -792 79 -434 142 -792 140 -794 -6
-6 -386 -74 -390 -70 -6 7 -375 2042 -371 2046 2 2 146 30 320 62 l316 58 58
-121 c32 -67 172 -362 312 -658 217 -455 256 -532 262 -510 4 15 30 317 58
672 28 355 54 670 58 700 l7 55 305 56 c168 31 312 56 320 55 11 -1 55 -223
200 -1024z m5890 493 c162 -54 297 -99 299 -101 3 -3 -73 -1332 -82 -1431 -2
-18 0 -30 4 -25 4 4 185 277 404 607 218 330 398 601 399 602 5 6 616 -203
616 -210 0 -14 -653 -1952 -660 -1961 -6 -6 -380 109 -380 117 0 1 114 345
254 765 140 419 253 762 251 762 -1 0 -206 -313 -455 -696 -249 -382 -458
-693 -464 -691 -6 2 -96 32 -199 67 l-188 62 6 62 c13 136 116 1570 113 1582
-2 8 -117 -327 -257 -744 -140 -416 -256 -759 -258 -762 -8 -9 -384 123 -380
134 2 6 152 451 333 989 181 537 334 976 339 974 6 -2 143 -48 305 -102z
m-9383 -1366 c232 -514 425 -939 427 -945 6 -16 -378 -189 -399 -180 -9 3
-303 194 -653 424 -351 230 -650 427 -667 438 -16 10 -27 15 -23 9 17 -29 559
-1237 556 -1240 -7 -6 -361 -165 -363 -163 -6 8 -848 1875 -852 1888 -2 11 46
37 181 98 102 45 189 82 195 82 5 0 315 -202 690 -449 375 -248 681 -447 681
-444 0 6 -276 618 -510 1135 l-58 126 177 80 c97 45 180 79 186 78 5 -1 199
-423 432 -937z m11983 329 c129 -74 179 -107 176 -119 -2 -8 -141 -254 -309
-545 -345 -598 -401 -705 -416 -787 -33 -180 87 -347 320 -444 87 -36 191 -38
266 -4 104 46 128 82 548 811 169 294 312 540 319 547 8 9 52 -12 191 -92 99
-57 181 -108 183 -113 2 -7 -438 -778 -601 -1052 -250 -421 -412 -541 -707
-527 -129 6 -230 36 -380 113 -366 186 -546 389 -579 651 -18 140 3 228 106
443 67 142 682 1220 696 1220 4 0 89 -46 187 -102z m-14217 -1518 c488 -305
887 -557 887 -560 0 -5 -335 -245 -365 -263 -9 -5 -85 40 -220 128 -113 74
-211 135 -216 135 -9 0 -656 -456 -686 -484 -10 -9 1 -63 52 -256 50 -188 63
-246 53 -251 -7 -4 -92 -65 -188 -134 -96 -69 -176 -122 -177 -118 -1 4 -122
496 -268 1092 -209 850 -263 1086 -253 1092 7 4 91 64 187 133 l173 124 67
-41 c37 -23 466 -292 954 -597z m16499 40 c199 -157 409 -324 465 -372 243
-209 328 -370 302 -579 -16 -131 -65 -232 -163 -337 -76 -81 -160 -136 -249
-164 -128 -38 -307 -14 -456 61 -23 12 -45 21 -47 19 -2 -2 7 -37 20 -78 36
-113 50 -227 43 -359 -9 -162 -57 -682 -66 -704 -5 -16 -33 2 -181 119 -96 75
-186 147 -200 160 l-25 23 22 318 c12 175 22 388 22 474 1 178 -10 233 -62
301 -30 39 -161 157 -198 178 -12 7 -67 -57 -278 -326 -145 -184 -267 -336
-271 -339 -10 -6 -342 255 -338 266 3 7 201 260 986 1257 162 205 298 372 303
370 4 -2 171 -131 371 -288z m-8652 170 c2823 -127 5427 -1190 7540 -3078 226
-202 702 -678 903 -903 802 -898 1460 -1889 1953 -2939 671 -1432 1045 -2944
1125 -4549 13 -269 7 -1133 -10 -1356 -35 -453 -80 -838 -142 -1210 -329
-1966 -1136 -3808 -2362 -5389 -872 -1124 -1942 -2089 -3161 -2850 -1216 -760
-2593 -1305 -4006 -1585 -1069 -212 -2198 -279 -3285 -196 -2423 187 -4700
1087 -6610 2614 -530 424 -1100 973 -1560 1501 -850 978 -1536 2086 -2042
3299 -462 1110 -766 2369 -867 3591 -54 650 -54 1370 0 2020 98 1192 383 2395
828 3494 172 424 427 961 637 1336 574 1030 1253 1920 2095 2750 922 908 1946
1638 3099 2210 1539 763 3167 1175 4910 1243 190 8 756 6 955 -3z m-9571
-1334 c436 -687 561 -892 554 -906 -4 -10 -75 -87 -158 -173 l-150 -154 -702
382 c-387 211 -703 381 -703 378 0 -3 185 -313 411 -689 l410 -684 -162 -170
c-90 -94 -166 -170 -169 -170 -8 0 -1832 1058 -1843 1069 -11 11 283 316 303
315 8 0 289 -166 623 -368 335 -202 610 -366 612 -364 2 2 -163 280 -367 618
-204 338 -373 622 -375 630 -2 9 66 88 169 195 95 99 175 181 178 183 3 1 271
-147 595 -329 325 -182 619 -347 653 -366 l64 -36 -411 617 c-226 339 -411
619 -411 622 0 3 66 76 147 161 116 123 149 151 158 141 7 -7 265 -413 574
-902z m20869 -1467 l143 -181 -552 -979 c-304 -539 -556 -978 -560 -977 -4 2
-70 83 -147 181 l-140 179 130 219 129 219 -262 333 c-143 182 -266 333 -273
335 -6 1 -117 -31 -246 -72 -129 -41 -235 -74 -236 -73 0 1 -60 78 -133 170
-73 93 -134 174 -137 181 -3 8 328 110 1063 328 587 174 1070 316 1073 317 3
1 70 -80 148 -180z m-22882 -729 c593 -138 1083 -252 1087 -253 4 -1 -53 -88
-128 -193 l-136 -191 -247 61 -247 62 -249 -349 -249 -348 141 -211 142 -211
-131 -183 c-72 -101 -134 -184 -137 -183 -11 0 -1207 1868 -1206 1881 1 12
206 309 242 351 8 9 20 17 27 17 7 0 498 -113 1091 -250z m23916 -797 c59
-103 106 -188 105 -189 -1 -1 -330 -192 -732 -424 -401 -232 -734 -426 -738
-430 -5 -4 109 -211 252 -458 144 -248 264 -457 267 -465 3 -9 -43 -41 -148
-102 -83 -48 -154 -84 -155 -79 -2 5 -172 299 -377 654 -247 426 -370 647
-363 652 85 51 1773 1028 1777 1028 3 0 53 -84 112 -187z m-25417 -650 c193
-333 357 -614 365 -624 8 -10 186 -104 395 -210 209 -106 381 -193 383 -195 6
-4 -188 -384 -197 -384 -4 0 -181 88 -392 196 l-384 195 -670 -71 c-368 -39
-692 -74 -719 -77 l-48 -6 106 209 c58 115 112 218 119 228 12 17 62 23 487
57 260 21 474 40 476 42 2 2 -110 185 -250 408 l-255 404 112 217 c62 120 114
218 117 218 3 0 163 -273 355 -607z m26111 -1609 l432 -6 81 -207 c45 -114 81
-210 81 -214 0 -14 -1623 -1558 -1630 -1550 -4 4 -17 33 -28 63 -11 30 -47
124 -80 208 l-60 152 184 171 c101 94 184 176 184 182 0 7 -69 188 -153 402
l-152 390 -255 0 -254 0 -63 160 c-35 88 -72 184 -83 213 l-20 53 692 -6 c381
-3 887 -8 1124 -11z m-27022 -89 c86 -18 217 -81 278 -135 61 -53 121 -143
150 -227 20 -59 23 -87 23 -215 l0 -146 45 34 c87 66 180 116 287 154 99 35
751 205 758 198 2 -2 -34 -112 -78 -245 l-82 -242 -323 -91 c-600 -170 -659
-196 -726 -328 -24 -48 -89 -223 -84 -227 2 -1 185 -64 408 -139 222 -75 406
-139 408 -141 8 -8 -130 -405 -141 -405 -15 0 -1950 651 -1960 659 -8 8 301
929 359 1071 70 169 144 277 232 340 123 89 284 119 446 85z m28127 -2076 c31
-173 55 -317 53 -320 -2 -3 -295 -144 -651 -314 -356 -169 -651 -310 -655
-314 -4 -4 318 -33 715 -64 397 -32 725 -62 729 -65 8 -8 122 -631 117 -636
-6 -5 -2044 -375 -2047 -371 -5 5 -74 387 -70 390 2 2 355 68 785 146 431 79
779 146 775 149 -4 4 -374 33 -822 64 -448 32 -816 59 -817 60 -2 2 -73 393
-73 403 0 5 338 164 750 353 413 190 746 346 741 348 -5 2 -359 -60 -786 -138
-428 -78 -779 -140 -780 -138 -5 4 -63 323 -67 363 l-3 30 1015 186 c558 103
1019 186 1025 185 5 -1 35 -144 66 -317z m-27291 -326 c-1 -10 -13 -115 -28
-232 l-27 -215 -242 -60 c-133 -34 -244 -64 -247 -67 -6 -5 -106 -795 -106
-832 0 -18 37 -41 220 -135 201 -104 220 -116 220 -139 0 -30 -50 -426 -54
-430 -3 -3 -1947 1064 -1958 1075 -4 4 5 108 20 231 21 173 30 226 42 230 30
10 2135 589 2148 590 6 1 12 -7 12 -16z m-286 -2434 l6 -247 -432 -278 c-238
-152 -454 -292 -481 -309 l-48 -32 178 -167 177 -168 317 7 316 8 6 -213 c4
-117 5 -215 3 -217 -4 -4 -2077 -65 -2081 -61 -1 2 -4 100 -6 218 l-4 215 405
12 c223 6 429 13 457 15 l53 3 -470 420 c-392 350 -471 424 -474 450 -3 16 -8
149 -11 294 l-6 264 158 -149 c563 -533 675 -635 686 -631 6 3 287 201 622
440 l610 435 6 -32 c4 -17 9 -142 13 -277z m26556 -621 c0 -46 3 -140 7 -210
5 -105 4 -128 -8 -131 -8 -3 -41 -9 -73 -16 -82 -15 -176 -61 -225 -110 -98
-98 -148 -288 -122 -461 15 -92 38 -145 87 -199 54 -61 106 -85 181 -86 130
-1 176 66 303 440 146 429 236 566 435 661 237 113 525 32 674 -192 83 -124
121 -271 121 -473 0 -503 -209 -819 -574 -870 -43 -6 -89 -11 -103 -11 l-25 0
6 188 c9 262 5 247 70 260 177 36 258 145 273 368 7 110 -8 201 -45 269 -39
70 -71 90 -142 90 -50 0 -64 -4 -97 -31 -55 -44 -116 -172 -196 -414 -112
-336 -169 -451 -277 -560 -116 -115 -232 -160 -412 -160 -118 0 -194 16 -283
61 -165 84 -272 219 -324 409 -56 200 -43 537 29 749 91 271 273 433 550 492
47 10 104 18 128 18 l42 1 0 -82z m225 -2219 c523 -122 952 -222 953 -224 3
-3 -348 -1535 -354 -1543 -2 -4 -321 70 -333 77 -6 4 38 215 118 561 75 324
125 557 120 561 -20 12 -429 102 -436 96 -3 -4 -60 -237 -125 -519 -65 -282
-120 -513 -121 -514 -4 -4 -329 75 -335 81 -6 6 3 50 138 632 52 222 92 405
89 407 -6 6 -540 129 -543 125 -1 -2 -62 -263 -135 -579 -73 -316 -134 -576
-135 -578 -4 -3 -307 67 -327 76 -16 7 51 310 321 1458 l31 132 62 -15 c34 -8
490 -113 1012 -234z m-26513 -233 c22 -114 38 -209 36 -211 -7 -5 -2043 -373
-2047 -369 -6 6 -81 417 -77 421 7 7 2010 372 2030 370 18 -2 24 -26 58 -211z
m-157 -751 c204 -52 364 -201 480 -448 96 -204 140 -383 140 -567 0 -143 -21
-228 -82 -340 -49 -88 -184 -221 -291 -284 -45 -27 -84 -47 -85 -45 -2 2 -42
89 -90 193 l-86 190 37 25 c74 49 122 94 155 144 89 134 88 290 -2 483 -93
197 -257 282 -402 206 -107 -56 -123 -138 -93 -473 22 -247 22 -457 1 -555
-62 -287 -319 -478 -599 -443 -260 32 -455 231 -573 583 -54 159 -68 237 -68
376 0 109 3 135 26 205 50 152 158 278 300 351 42 21 78 36 80 34 7 -7 158
-402 155 -405 -2 -1 -19 -11 -39 -23 -49 -30 -115 -102 -134 -148 -19 -47 -20
-162 0 -239 35 -134 129 -281 207 -321 35 -18 101 -18 137 1 100 51 119 165
85 501 -22 219 -22 469 0 558 26 107 87 216 162 285 69 65 189 131 284 155 73
19 221 20 295 1z m25632 -745 c46 -11 98 -26 117 -34 l34 -14 -53 -191 c-29
-106 -55 -194 -57 -197 -3 -3 -41 4 -84 16 -103 27 -166 26 -230 -4 -84 -39
-144 -142 -144 -246 0 -94 39 -145 162 -213 35 -20 360 -153 723 -298 363
-144 664 -265 668 -269 10 -9 -144 -400 -157 -400 -15 0 -1260 497 -1354 541
-326 150 -466 392 -407 704 49 264 192 483 373 574 107 54 264 66 409 31z
m-24707 -1055 l104 -205 -30 -32 c-110 -118 -304 -340 -304 -348 0 -6 84 -179
187 -385 185 -369 188 -375 218 -375 16 0 131 11 254 25 123 14 225 24 227 22
1 -1 47 -93 103 -204 l101 -202 -43 -6 c-59 -8 -2191 -195 -2193 -192 -1 1
-47 93 -103 204 l-103 203 24 29 c64 80 1442 1671 1447 1671 3 0 53 -93 111
-205z m24395 -1149 c372 -473 682 -867 688 -877 9 -14 -8 -50 -97 -206 -60
-103 -112 -192 -116 -197 -11 -11 -2230 285 -2230 297 0 9 205 373 220 390 4
5 116 -8 249 -28 132 -21 247 -35 254 -32 13 5 427 716 427 734 0 6 -70 95
-155 198 -85 104 -155 192 -155 197 0 16 225 397 231 390 3 -4 311 -394 684
-866z m-23356 -775 l149 -209 -104 -284 c-247 -671 -251 -701 -108 -914 32
-47 63 -88 69 -91 7 -2 156 99 331 224 175 126 333 238 350 250 l31 22 122
-172 c67 -95 122 -176 122 -180 0 -4 -359 -265 -798 -579 -439 -314 -819 -586
-844 -604 l-47 -34 -297 416 c-323 452 -379 537 -435 659 -46 99 -60 155 -60
242 0 146 54 267 170 383 122 122 254 180 411 180 146 0 266 -50 399 -168 l60
-53 0 99 c0 108 10 180 42 287 19 66 278 735 284 735 2 0 70 -94 153 -209z
m22266 -1042 c449 -353 814 -646 813 -650 -2 -5 -61 -83 -132 -173 l-129 -165
-36 28 c-20 16 -165 130 -323 254 l-287 226 -253 -321 c-139 -177 -256 -326
-260 -332 -4 -7 122 -112 312 -261 176 -138 319 -253 320 -257 0 -3 -59 -81
-131 -172 -82 -105 -135 -164 -142 -159 -15 8 -1597 1250 -1616 1268 -11 11 7
40 114 177 71 90 131 166 134 170 3 4 166 -119 361 -272 195 -154 358 -279
362 -277 4 1 122 148 263 326 169 215 252 328 246 335 -5 6 -165 133 -355 281
-190 149 -344 274 -343 278 3 10 258 337 264 337 2 0 370 -289 818 -641z
m-20456 -1155 c320 -306 581 -560 579 -565 -6 -17 -1430 -1500 -1437 -1497 -8
3 -786 745 -1024 976 l-117 114 116 124 c64 68 120 124 125 124 5 0 195 -178
421 -394 l412 -395 146 151 c80 83 151 159 158 169 11 15 -30 58 -373 385
l-384 367 79 86 c43 47 98 105 122 128 l43 42 385 -369 385 -369 192 197 c106
108 191 203 190 210 -1 6 -191 193 -422 413 -231 221 -421 405 -423 410 -4 10
226 249 239 249 4 0 269 -250 588 -556z m18522 -839 c310 -324 567 -590 571
-590 4 0 107 95 229 210 121 116 224 211 228 213 5 1 62 -54 127 -124 l119
-127 -79 -74 c-44 -41 -318 -303 -609 -581 -291 -279 -535 -507 -541 -507 -14
0 -236 227 -236 242 0 6 101 107 224 224 l223 214 -147 155 c-82 85 -351 367
-599 625 l-451 470 158 152 157 152 31 -32 c17 -18 285 -297 595 -622z m-1068
-1130 c307 -481 556 -879 553 -884 -8 -12 -1327 -854 -1330 -849 -37 46 -185
293 -179 298 4 5 222 144 483 311 261 166 476 303 477 303 4 3 -242 386 -249
386 -3 0 -207 -129 -453 -286 -246 -157 -448 -284 -450 -282 -1 2 -44 68 -95
147 -86 136 -91 146 -73 158 10 8 213 138 451 290 414 265 432 277 419 297 -8
12 -76 119 -152 238 l-138 217 -36 -23 c-20 -13 -245 -157 -500 -320 -255
-163 -467 -296 -470 -296 -3 1 -48 67 -99 148 l-93 146 68 43 c38 23 345 220
683 437 338 217 617 395 620 395 3 0 256 -393 563 -874z m-15471 364 c79 -56
157 -112 175 -125 l32 -24 -605 -849 -605 -850 -262 187 c-620 440 -700 507
-771 641 -84 161 -88 338 -11 507 118 257 319 409 557 422 201 10 342 -55 760
-354 64 -46 120 -84 125 -84 4 0 108 142 231 315 123 173 225 315 227 315 2 0
68 -46 147 -101z m13654 -1509 c233 -514 423 -941 421 -948 -2 -12 -198 -104
-745 -348 -376 -168 -525 -209 -670 -184 -248 42 -451 279 -469 550 -6 97 10
181 55 270 30 61 139 182 215 237 l50 37 -74 12 c-124 21 -233 62 -362 138
-150 88 -597 377 -597 386 0 6 418 198 451 207 9 3 134 -67 290 -162 336 -205
489 -291 553 -310 100 -30 195 -14 348 58 l68 32 -179 395 c-99 217 -178 396
-178 397 10 10 376 171 386 170 8 -1 187 -384 437 -937z m-12500 851 c227 -56
465 -191 620 -353 242 -252 315 -605 199 -963 -89 -273 -282 -555 -470 -684
-357 -247 -778 -226 -1200 60 -148 100 -260 225 -333 374 -146 293 -129 601
51 960 183 366 435 570 772 626 78 12 270 2 361 -20z m1603 -723 c141 -39 259
-74 264 -78 4 -3 72 -244 152 -536 80 -291 148 -536 152 -545 7 -14 40 1 215
100 114 64 209 119 213 122 3 4 44 140 90 304 46 163 85 298 87 300 3 3 408
-112 413 -117 5 -4 -556 -1992 -563 -1999 -10 -9 -405 105 -409 117 -2 6 51
204 117 439 66 235 119 429 117 432 -2 2 -245 -141 -540 -317 -295 -176 -541
-320 -547 -320 -29 0 -550 154 -543 160 4 5 226 131 493 281 267 149 486 273
488 274 2 2 -443 1382 -466 1443 -2 6 -1 12 3 12 5 0 123 -32 264 -72z m8691
10 c0 -24 -231 -2203 -234 -2213 -3 -9 -393 -125 -432 -129 -10 -1 -420 517
-1352 1707 -25 31 -43 60 -40 63 6 6 417 124 434 124 5 0 77 -90 160 -199 82
-110 152 -200 156 -200 9 -1 820 227 823 231 1 2 12 115 23 252 11 136 22 249
24 251 3 3 416 122 431 124 4 0 7 -5 7 -11z"/>
<path d="M15502 29758 c-72 -210 -130 -383 -129 -384 4 -4 570 16 574 20 5 4
-295 726 -307 739 -4 4 -66 -164 -138 -375z"/>
<path d="M7573 27555 c5 -18 167 -622 196 -732 l11 -42 235 167 c128 92 234
170 234 173 1 5 -427 289 -653 434 -28 19 -29 19 -23 0z"/>
<path d="M24576 27053 c-85 -109 -156 -202 -156 -206 -2 -11 320 -264 439
-346 50 -34 112 -69 137 -78 153 -52 324 81 324 252 0 73 -33 138 -102 200
-77 69 -466 375 -477 375 -5 0 -79 -89 -165 -197z"/>
<path d="M15325 24959 c-633 -64 -1257 -360 -1863 -883 -67 -58 -127 -106
-133 -106 -6 0 -80 22 -163 49 -610 195 -1195 254 -1707 170 -881 -143 -1593
-701 -2146 -1679 -109 -193 -262 -504 -230 -470 7 8 53 62 102 120 128 151
478 497 630 624 862 719 1784 1085 2910 1156 192 12 575 13 575 2 0 -5 -11
-19 -25 -32 -14 -13 -23 -25 -21 -27 2 -2 48 18 102 45 494 247 1100 433 1637
502 707 90 1422 20 2119 -206 273 -89 606 -221 591 -234 -4 -4 -32 -15 -60
-25 -29 -9 -53 -19 -53 -21 0 -2 48 -1 108 2 96 6 112 5 147 -14 22 -11 58
-27 80 -36 l40 -16 -40 36 -40 36 202 -6 c1482 -44 2735 -655 3731 -1818 41
-49 76 -88 78 -88 2 0 -17 44 -42 98 -114 245 -291 555 -437 764 -143 204
-247 328 -427 509 -236 237 -462 404 -720 534 -691 347 -1489 373 -2450 80
-10 -3 -64 33 -133 89 -579 462 -1161 739 -1740 827 -152 23 -480 33 -622 18z"/>
<path d="M15175 23589 c-1723 -136 -3251 -1085 -4143 -2574 -103 -172 -268
-502 -346 -690 -483 -1173 -524 -2524 -112 -3720 274 -800 714 -1492 1322
-2085 403 -392 839 -699 1349 -950 621 -305 1226 -472 1930 -531 176 -15 649
-15 820 0 545 48 1054 166 1540 358 166 65 515 234 670 323 253 145 543 348
785 549 148 123 508 482 633 633 528 631 897 1354 1090 2133 238 958 203 1979
-99 2909 -634 1947 -2333 3357 -4359 3616 -82 10 -213 24 -290 29 -163 13
-631 12 -790 0z m885 -524 c571 -61 1107 -213 1605 -455 1330 -648 2290 -1878
2588 -3316 59 -281 82 -468 97 -775 53 -1115 -307 -2248 -994 -3128 -916
-1174 -2297 -1851 -3776 -1851 -1170 0 -2275 418 -3160 1195 -138 121 -408
400 -523 540 -620 760 -982 1638 -1072 2604 -17 190 -20 634 -5 816 100 1176
604 2241 1442 3050 834 805 1883 1263 3063 1339 126 8 596 -4 735 -19z"/>
<path d="M15225 22393 c-27 -2 -122 -12 -210 -23 -742 -93 -1435 -388 -2035
-866 -162 -130 -472 -436 -598 -592 -320 -395 -557 -824 -712 -1292 -146 -438
-204 -797 -204 -1270 -1 -351 13 -493 86 -833 l31 -149 31 6 c17 2 113 13 213
22 l182 18 21 60 c12 34 33 81 47 104 24 43 24 44 4 37 -30 -9 -27 -1 25 66
54 68 129 129 200 161 64 29 185 31 262 4 l53 -18 -108 -112 c-116 -120 -242
-276 -223 -276 7 0 55 40 108 89 91 84 278 231 294 231 12 0 29 -106 31 -191
l2 -81 65 6 c131 13 141 16 130 36 -19 35 -12 60 15 60 19 0 25 -5 25 -21 0
-37 17 -57 45 -52 28 6 31 17 10 53 -39 69 1 122 89 117 l51 -4 2 -51 c2 -44
0 -52 -15 -52 -9 0 -25 14 -34 30 -18 32 -45 39 -54 15 -4 -9 2 -35 12 -58
l19 -42 508 52 c280 28 511 54 514 56 2 3 -4 22 -15 44 -11 21 -36 85 -57 143
-44 125 -74 179 -133 242 l-45 48 61 0 c76 0 190 -22 282 -54 61 -21 69 -22
56 -7 -9 10 -16 21 -16 26 0 13 163 -4 245 -26 41 -10 100 -30 131 -44 68 -30
67 -30 59 -5 -9 28 -2 26 68 -22 84 -57 158 -133 197 -201 18 -31 38 -57 46
-57 18 0 19 -4 -21 145 -94 358 -239 704 -389 930 -77 117 -231 270 -308 308
-32 15 -58 29 -58 32 0 7 74 -17 111 -36 l36 -18 -19 38 c-10 21 -21 61 -25
89 -6 51 3 129 14 118 4 -3 19 24 34 60 30 71 73 134 92 134 7 0 25 27 40 59
16 32 39 69 52 81 l23 22 11 -52 c6 -28 30 -85 53 -126 24 -41 50 -87 57 -102
19 -35 26 -142 13 -182 -7 -18 -7 -28 -2 -25 19 12 10 -13 -22 -61 -44 -64
-138 -141 -149 -122 -14 25 -31 230 -25 308 l5 75 -14 -70 c-8 -38 -17 -124
-21 -190 l-7 -120 57 -44 c244 -189 550 -638 742 -1091 29 -69 58 -125 64
-124 5 1 28 2 50 3 51 1 51 13 1 36 -22 10 -50 28 -62 41 l-22 24 23 25 c23
25 50 33 50 16 0 -19 68 -51 107 -51 46 0 73 23 73 63 0 32 -25 50 -97 73 -71
22 -103 60 -103 120 0 81 46 144 105 144 9 0 18 12 22 30 6 31 12 34 51 24 15
-4 22 -14 22 -30 0 -17 9 -28 33 -38 17 -8 40 -20 49 -27 17 -13 17 -16 -5
-43 l-23 -28 -39 21 c-73 39 -135 21 -135 -38 0 -35 21 -53 89 -77 30 -10 66
-30 80 -44 l25 -26 37 76 c253 522 745 1067 990 1097 l44 5 -60 -39 c-128 -84
-266 -263 -385 -498 -81 -159 -95 -195 -74 -195 8 0 14 -10 14 -24 0 -33 32
-71 53 -63 20 7 22 36 6 71 -6 13 -9 36 -5 50 8 32 58 60 89 49 12 -4 31 -8
42 -8 17 0 20 -8 21 -52 2 -44 0 -53 -15 -53 -10 0 -23 14 -32 33 -19 44 -55
45 -52 2 1 -16 5 -43 8 -58 10 -38 -26 -77 -71 -77 -18 0 -35 4 -39 10 -3 5
-13 6 -21 3 -20 -7 -36 17 -23 34 7 7 7 18 1 29 -11 19 -6 31 -68 -151 -41
-117 -114 -367 -114 -388 0 -14 63 -3 71 13 4 8 17 40 28 70 12 30 36 77 54
105 27 42 32 46 35 28 3 -21 5 -20 34 13 42 48 132 115 195 148 62 31 78 33
68 9 -4 -11 6 -6 27 13 57 52 111 90 177 124 63 31 64 31 56 8 -34 -111 -36
-125 -30 -243 3 -66 8 -143 11 -170 l6 -50 106 10 c70 7 107 14 110 23 3 9 7
10 17 2 10 -9 12 5 8 72 -6 95 10 176 53 259 19 39 28 49 35 38 7 -11 9 -11 9
3 0 10 33 67 74 127 94 138 114 176 129 254 l13 62 31 -45 c47 -70 81 -142
107 -232 15 -49 25 -72 25 -55 1 39 15 34 50 -21 46 -72 90 -175 110 -260 13
-53 21 -71 26 -59 13 32 25 17 25 -33 0 -41 3 -50 18 -49 9 0 112 10 227 22
l210 22 5 97 c3 53 8 100 13 104 4 4 7 1 7 -7 0 -8 13 9 29 36 27 47 91 104
123 109 42 6 180 72 204 97 15 16 31 29 36 29 12 0 9 -68 -6 -132 -8 -37 -10
-58 -3 -58 14 0 2 -113 -17 -167 -9 -26 -11 -43 -5 -43 6 0 7 -4 4 -10 -7 -11
35 -13 112 -4 l52 7 -18 26 c-16 24 -41 84 -41 101 0 7 68 30 87 30 5 0 15
-17 21 -38 6 -21 27 -53 46 -71 34 -33 36 -34 102 -28 71 5 84 14 84 60 0 22
-18 47 -75 107 -41 43 -77 90 -81 104 -6 26 -2 67 11 116 6 24 6 24 -10 -2
-23 -41 -49 -51 -69 -29 -15 16 -14 19 8 40 29 28 41 68 25 87 -20 24 -47 16
-65 -18 -25 -49 -55 -78 -81 -78 -39 0 -82 28 -89 58 -4 15 -13 32 -21 39 -19
15 -13 48 9 48 9 0 26 13 38 28 22 28 22 28 37 8 12 -18 12 -24 -1 -43 -20
-28 -20 -62 -2 -77 20 -17 38 -5 68 44 29 47 59 62 102 51 33 -8 56 -33 63
-67 7 -35 13 -36 61 -5 47 31 88 39 130 27 31 -9 35 -8 50 19 20 36 21 36 66
9 41 -24 42 -26 20 -57 -15 -21 -14 -25 15 -57 17 -20 37 -49 46 -65 14 -27
14 -30 -4 -40 -61 -32 -66 -31 -100 16 -57 82 -144 101 -185 42 -32 -45 -21
-73 59 -158 75 -80 95 -122 82 -171 -5 -18 -2 -20 36 -14 23 3 152 16 286 30
158 16 248 30 254 38 12 16 0 369 -19 547 -163 1580 -1227 2917 -2730 3433
-317 109 -645 178 -979 206 -110 10 -530 12 -650 4z m344 -312 c7 -26 9 -60 5
-75 -8 -35 -43 -60 -61 -44 -7 6 -13 7 -13 3 0 -4 -7 -2 -15 5 -28 23 -18 73
23 118 20 23 40 42 43 42 3 0 11 -22 18 -49z m673 -19 c-40 -80 -57 -101 -97
-117 -33 -14 -91 -9 -102 8 -3 6 16 30 43 55 50 45 36 44 -25 -2 -40 -30 -56
-22 -46 22 13 63 82 97 200 99 l61 1 -34 -66z m-344 -12 c2 0 2 -12 0 -27 -3
-26 -6 -28 -40 -25 -21 2 -38 -1 -38 -6 0 -13 53 -22 65 -12 13 11 66 -14 95
-45 l21 -23 -30 -21 -30 -22 -41 27 c-52 34 -124 39 -146 10 -19 -27 -18 -80
4 -98 9 -9 40 -27 67 -42 59 -30 75 -43 98 -76 34 -49 11 -162 -42 -199 -14
-10 -46 -23 -71 -28 -36 -7 -46 -13 -48 -31 -3 -23 -19 -27 -60 -15 -20 5 -23
11 -18 34 4 23 1 31 -17 40 -29 15 -97 80 -97 93 0 6 12 20 27 32 l28 22 35
-38 c38 -41 102 -65 145 -54 17 4 33 19 42 40 25 52 8 76 -86 124 -111 55
-136 110 -92 206 23 50 62 82 111 90 32 5 39 11 44 35 5 26 7 27 38 18 18 -5
34 -9 36 -9z m-1024 -115 c-1 -103 -4 -129 -20 -152 -10 -15 -19 -32 -19 -37
0 -12 -79 -52 -118 -60 -26 -6 -27 -5 -21 21 4 16 19 62 35 103 33 89 13 68
-39 -39 l-35 -73 -24 38 c-12 22 -23 53 -23 69 0 38 36 118 50 110 5 -3 10 -2
10 3 0 14 70 65 92 67 10 1 28 10 40 22 17 14 69 53 73 53 0 0 0 -56 -1 -125z
m1627 -3 c38 13 70 5 110 -29 38 -32 63 -86 53 -116 -4 -12 -26 -48 -50 -80
-51 -68 -53 -85 -20 -116 19 -18 31 -22 52 -17 38 10 81 57 89 98 6 33 8 35
38 29 18 -4 32 -12 31 -19 -1 -7 -2 -20 -2 -31 -1 -10 -13 -34 -26 -54 -22
-32 -23 -36 -8 -51 14 -14 14 -17 -3 -36 -22 -24 -41 -26 -53 -3 -8 14 -14 15
-41 4 -42 -18 -92 -7 -123 27 -59 63 -63 111 -14 175 63 83 69 104 34 137 -16
15 -30 19 -48 15 -29 -7 -80 -53 -80 -71 0 -19 -18 -27 -46 -20 -30 8 -31 34
-3 70 18 23 20 31 10 52 -10 22 -8 28 11 44 22 18 24 18 42 0 15 -15 24 -16
47 -8z m-1227 -7 c26 -14 31 -14 48 1 17 16 20 16 43 -6 24 -22 24 -25 8 -42
-15 -17 -15 -21 0 -54 27 -56 23 -74 -18 -74 -25 0 -35 4 -35 16 0 52 -75 112
-115 92 -46 -24 -46 -49 1 -143 33 -66 35 -76 25 -107 -14 -44 -58 -86 -101
-98 -26 -7 -42 -5 -76 9 -38 17 -43 18 -58 3 -15 -15 -18 -14 -42 10 -26 26
-26 26 -7 39 20 12 20 13 2 53 -10 23 -19 56 -19 74 0 30 2 32 34 32 32 0 34
-2 39 -41 7 -50 58 -109 96 -109 32 0 61 27 61 58 0 14 -14 47 -31 75 -57 93
-46 153 36 203 47 28 69 30 109 9z m-1121 -59 c26 -13 47 -19 47 -14 0 13 50
-2 109 -33 29 -16 57 -26 61 -24 12 7 60 -54 82 -103 21 -46 19 -95 -6 -140
-12 -22 -12 -21 -48 25 -39 50 -167 179 -153 153 5 -8 25 -35 46 -60 50 -60
109 -161 102 -173 -8 -13 -123 -1 -169 18 -20 8 -34 18 -31 21 4 4 -5 15 -19
26 -37 30 -56 74 -76 182 -10 55 -25 110 -33 122 -8 13 -15 26 -15 30 0 10 51
-5 103 -30z m2026 -148 c6 -27 11 -61 11 -76 0 -19 3 -23 9 -14 12 20 40 -56
48 -129 3 -32 10 -59 14 -59 5 0 6 -15 2 -32 -11 -60 -45 -128 -79 -158 -32
-28 -110 -57 -122 -46 -3 3 4 38 16 78 23 80 42 180 41 212 0 12 -9 -6 -18
-39 -22 -74 -79 -217 -91 -229 -15 -15 -48 21 -82 91 -31 63 -31 65 -19 130
16 90 30 112 126 211 46 47 90 99 96 115 11 27 14 28 25 12 7 -9 18 -39 23
-67z m860 -30 c1 -27 -29 -68 -49 -68 -5 0 -10 8 -11 18 0 15 -1 14 -8 -3 -7
-18 -9 -18 -25 7 -21 32 -10 67 36 109 l33 29 12 -32 c6 -18 12 -45 12 -60z
m-1584 -37 c3 -11 32 -44 64 -73 72 -67 87 -91 95 -150 7 -48 -5 -92 -37 -133
l-16 -20 -15 20 c-9 11 -29 54 -45 95 -37 92 -39 80 -6 -35 14 -48 24 -90 21
-92 -9 -10 -73 18 -94 40 -40 42 -52 87 -42 159 5 35 16 78 25 94 8 16 15 38
15 49 1 55 23 84 35 46z m1982 -83 c-13 -18 -37 -64 -53 -102 -26 -61 -43 -82
-111 -136 -23 -18 -62 -22 -117 -10 -31 6 -56 15 -56 19 0 9 100 106 145 139
25 19 26 21 5 11 -22 -10 -99 -62 -161 -108 -18 -13 -19 -10 -19 45 0 56 2 59
48 103 26 26 58 47 72 49 14 1 63 4 108 6 46 3 87 7 90 10 3 3 21 6 39 6 l34
0 -24 -32z m-2746 -72 c89 -36 186 -94 272 -163 l80 -65 -27 45 -26 46 52 -16
c112 -33 259 -120 361 -213 l57 -52 0 32 0 32 41 -48 c61 -73 127 -190 152
-269 29 -93 29 -217 -1 -297 -21 -59 -88 -178 -100 -178 -4 0 -22 29 -40 65
-90 172 -301 457 -472 635 -79 83 -80 83 -37 25 125 -171 259 -391 330 -544
51 -112 109 -262 103 -268 -9 -9 -215 18 -292 38 -93 24 -208 79 -255 120 -20
18 -26 28 -16 25 70 -22 72 -19 20 23 -63 51 -113 117 -153 202 -48 104 -79
252 -48 233 8 -5 9 0 4 17 -4 13 -11 105 -16 204 -10 196 -25 270 -70 353
l-29 54 27 -7 c15 -3 52 -16 83 -29z m-902 -38 c18 -12 46 -22 61 -23 15 -2
48 -16 73 -33 24 -17 47 -29 49 -26 10 9 60 -80 65 -116 5 -37 -11 -105 -27
-115 -5 -3 -29 25 -53 62 -25 38 -58 79 -73 93 l-28 25 21 -30 c21 -30 93
-170 93 -180 0 -11 -69 -4 -111 10 -72 26 -129 111 -129 193 0 50 -13 132 -25
165 -7 15 -4 16 21 7 16 -6 44 -21 63 -32z m3018 -95 c-33 -64 -47 -136 -48
-241 0 -48 -4 -112 -8 -142 -5 -35 -5 -57 2 -62 15 -9 -16 -129 -53 -204 -18
-37 -52 -82 -89 -117 -33 -31 -58 -57 -56 -57 2 0 15 4 29 10 14 5 26 7 26 3
0 -21 -146 -96 -229 -118 -35 -9 -101 -19 -148 -22 l-84 -6 22 59 c55 153 177
378 291 539 l49 70 -60 -62 c-122 -127 -292 -358 -357 -485 -13 -27 -28 -48
-32 -48 -14 0 -70 104 -86 159 -37 129 -2 260 112 413 39 51 49 57 54 33 2
-12 16 -5 53 26 98 82 183 130 293 163 l22 7 -22 -38 -23 -38 61 51 c34 28 88
66 120 85 56 32 175 80 182 74 2 -2 -8 -25 -21 -52z m772 -80 c-5 -14 -9 -74
-8 -132 3 -99 1 -110 -25 -158 -29 -55 -74 -84 -150 -98 -37 -7 -37 -7 -30 21
9 37 38 113 65 167 l20 42 -20 -25 c-12 -14 -39 -60 -61 -102 -23 -43 -44 -78
-48 -78 -17 0 -45 67 -45 105 0 43 39 139 52 130 5 -2 19 7 32 21 13 15 49 38
79 53 30 15 73 39 95 54 50 34 57 34 44 0z m-3322 -7 c3 -3 7 -23 9 -44 3 -29
-2 -47 -18 -67 -23 -29 -43 -30 -106 -4 -28 12 -34 12 -42 -1 -13 -21 12 -54
44 -58 18 -2 26 -9 26 -23 0 -16 -6 -18 -52 -16 -52 3 -53 4 -56 38 -5 59 -4
71 14 90 21 23 55 24 95 3 37 -19 59 -12 59 17 0 14 -10 24 -30 32 -17 7 -30
19 -30 28 0 14 8 17 41 14 22 -1 43 -5 46 -9z m268 -191 c16 -44 33 -83 37
-86 17 -12 20 -133 4 -177 -8 -23 -13 -49 -10 -56 7 -19 -82 -105 -143 -139
l-52 -27 -6 21 c-9 28 3 193 21 288 7 41 12 76 10 78 -8 9 -68 -225 -81 -319
-3 -27 -9 -48 -12 -48 -3 0 -21 11 -39 25 -42 32 -84 117 -84 171 0 60 21 143
34 138 7 -3 21 15 33 38 22 45 98 138 114 138 4 0 6 -8 2 -17 -3 -10 9 5 27
32 17 28 48 67 68 88 l37 38 6 -53 c3 -29 19 -89 34 -133z m1237 151 c33 -6
36 -9 29 -29 -6 -17 -15 -21 -35 -19 -34 4 -76 -22 -76 -48 0 -26 30 -40 71
-34 50 8 88 -10 105 -51 24 -58 -8 -120 -56 -108 -10 3 -21 0 -24 -6 -5 -7 1
-10 16 -8 30 3 37 -28 8 -36 -13 -3 -23 0 -26 8 -3 7 -23 15 -44 19 -44 7 -54
17 -45 46 5 17 10 18 27 9 11 -6 35 -8 54 -4 40 7 60 36 44 65 -9 17 -19 20
-70 18 -71 -4 -99 17 -107 78 -4 32 -1 43 20 62 15 14 23 31 20 42 -6 22 26
33 42 15 6 -7 27 -15 47 -19z m-2384 -84 c20 -31 42 -58 47 -58 6 0 24 -25 42
-55 18 -30 37 -59 42 -65 35 -41 17 -151 -31 -196 -47 -44 -54 -38 -61 55 -11
144 -25 158 -26 25 -1 -65 -5 -118 -9 -118 -16 0 -91 59 -108 85 -10 15 -19
54 -22 90 -3 57 0 71 33 142 20 43 39 95 42 116 3 20 7 37 10 37 2 0 20 -26
41 -58z m3677 -13 c1 -8 6 -24 13 -36 14 -25 4 -61 -22 -82 -12 -10 -25 -11
-54 -4 -46 12 -62 7 -62 -17 0 -23 35 -44 61 -37 14 4 19 0 19 -14 0 -15 -7
-19 -35 -19 -19 0 -35 -4 -35 -10 0 -5 -7 -7 -16 -3 -8 3 -13 11 -10 19 3 7
-2 18 -10 24 -19 16 -18 50 2 79 15 21 22 23 69 17 43 -5 54 -3 59 10 9 22
-11 44 -40 44 -18 0 -24 6 -24 21 0 17 5 20 25 17 14 -3 28 -1 31 4 8 13 29 4
29 -13z m851 -54 c25 -36 59 -96 75 -133 16 -37 29 -59 29 -49 0 9 4 17 9 17
24 0 122 -165 151 -254 9 -27 15 -34 21 -25 16 26 23 -2 27 -111 4 -98 -3
-159 -24 -214 -5 -14 -2 -15 19 -7 14 6 41 7 60 4 29 -4 37 -1 46 16 9 16 16
19 29 11 43 -24 45 -27 32 -49 -9 -19 -7 -28 19 -63 17 -23 31 -45 31 -48 0
-7 -46 -30 -60 -30 -5 0 -16 13 -26 29 -19 33 -62 61 -93 61 -26 0 -61 -34
-61 -60 0 -10 24 -47 54 -80 67 -75 75 -105 45 -166 -30 -63 -70 -87 -135 -81
-42 4 -52 2 -62 -14 -10 -15 -17 -17 -30 -10 -43 25 -44 27 -32 48 10 16 7 27
-19 68 -38 60 -39 82 -5 95 37 15 42 13 49 -19 12 -55 96 -112 135 -91 22 12
40 41 40 64 0 8 -26 43 -57 76 -48 52 -57 68 -58 99 l0 38 -38 -25 c-20 -14
-39 -23 -40 -21 -2 2 -9 71 -15 152 -11 133 -59 423 -69 413 -3 -2 1 -60 8
-128 12 -129 7 -416 -9 -444 -7 -13 -18 -8 -68 29 -77 58 -115 98 -158 171
-40 66 -46 88 -17 62 17 -16 17 -14 -2 41 -15 47 -18 75 -14 143 6 94 23 164
38 155 5 -4 9 1 9 10 0 9 21 66 46 128 36 87 48 128 52 185 2 39 8 72 13 72 4
0 29 -29 55 -65z m-4150 -22 c19 -25 17 -32 -11 -43 -14 -5 -25 -14 -25 -20 0
-14 42 7 53 26 4 8 20 14 35 14 47 0 94 -33 125 -88 41 -74 34 -104 -43 -171
-33 -29 -60 -60 -60 -70 0 -10 9 -30 21 -45 38 -48 122 -27 153 39 19 40 18
40 56 20 27 -14 28 -18 19 -43 -6 -15 -23 -41 -39 -57 -21 -22 -27 -34 -20
-45 16 -25 12 -35 -19 -47 -26 -9 -30 -8 -40 14 -10 21 -16 24 -42 19 -90 -18
-190 104 -155 189 8 17 34 49 60 70 51 41 64 71 46 105 -27 50 -103 42 -148
-15 -21 -27 -21 -27 -52 -9 -16 10 -30 22 -30 27 0 5 16 25 35 44 30 30 33 37
22 54 -10 17 -9 23 7 35 26 18 36 18 52 -3z m-1055 -167 c29 -37 106 -82 206
-120 50 -19 109 -44 131 -55 24 -12 42 -16 44 -10 5 16 118 -62 166 -115 24
-26 56 -73 70 -104 24 -52 27 -55 32 -32 12 46 34 -56 34 -160 1 -90 -27 -250
-43 -250 -14 0 -199 170 -258 237 -34 39 -92 110 -129 159 -37 49 -69 91 -72
94 -3 3 14 -31 38 -75 63 -116 170 -273 260 -380 l79 -94 -37 -12 c-58 -20
-168 -15 -232 9 -68 27 -146 94 -205 177 -25 34 -45 65 -45 68 0 3 9 3 20 0
19 -5 19 -4 -4 48 -34 79 -56 176 -56 254 0 67 0 68 20 50 20 -18 20 -17 -1
41 -36 104 -64 294 -43 294 3 0 15 -11 25 -24z m4478 -75 c6 -19 11 -47 11
-63 0 -16 4 -27 9 -24 11 7 19 -12 37 -98 17 -82 8 -130 -37 -181 -28 -31 -94
-64 -106 -52 -2 3 5 43 16 88 23 91 27 150 6 82 -8 -23 -26 -69 -41 -103 -25
-55 -28 -59 -44 -45 -31 28 -87 167 -60 150 6 -4 10 8 10 30 0 49 12 69 90
150 37 39 70 81 75 94 8 27 18 19 34 -28z m416 -33 c7 -7 6 -12 -1 -14 -6 -3
-8 -18 -6 -34 6 -41 -22 -40 -37 1 -8 24 -15 30 -33 27 -19 -2 -22 -8 -19 -33
9 -74 6 -87 -20 -107 -24 -18 -29 -19 -70 -5 -38 13 -66 37 -42 37 5 0 7 16 5
35 -4 30 -1 35 17 35 16 0 21 -6 21 -29 0 -33 22 -56 46 -47 16 6 16 17 -1 87
-5 20 -1 32 17 48 19 19 30 21 68 16 25 -4 50 -11 55 -17z m-825 -208 c0 -5 9
-10 20 -10 34 0 23 -28 -12 -32 -25 -2 -33 -8 -33 -23 0 -16 8 -21 42 -23 30
-2 47 -10 58 -25 20 -29 19 -43 -5 -67 -11 -11 -20 -23 -19 -27 0 -5 -7 -9
-15 -11 -9 -2 -16 1 -16 7 0 6 -11 11 -25 11 -18 0 -25 5 -25 19 0 15 7 18 38
17 31 -1 37 2 40 22 3 20 -1 22 -42 22 -35 0 -48 5 -56 19 -14 28 -12 57 5 75
8 8 15 19 15 25 0 6 7 11 15 11 8 0 15 -4 15 -10z m-3024 -23 c44 -22 82 -71
90 -113 3 -19 5 -37 2 -39 -2 -2 -44 11 -93 30 -121 46 -137 44 -40 -5 44 -22
88 -49 99 -60 20 -19 20 -19 -38 -46 -103 -47 -193 -16 -275 97 -28 38 -65 78
-82 88 -37 22 -28 30 43 37 29 3 62 10 73 14 50 22 176 20 221 -3z m848 -110
c-1 -112 -8 -154 -29 -177 -7 -8 -13 -19 -12 -25 2 -13 -69 -51 -110 -60 -42
-9 -42 4 -3 104 35 89 23 81 -29 -19 l-39 -73 -16 26 c-23 35 -30 89 -17 129
12 38 93 111 148 134 17 8 48 25 69 39 20 14 37 25 38 25 1 0 1 -47 0 -103z
m4126 6 c7 -32 16 -63 21 -69 16 -20 37 -144 29 -177 -16 -74 -73 -137 -122
-137 -15 0 -14 6 3 73 24 92 24 129 0 57 -10 -30 -26 -73 -36 -95 -16 -38 -18
-39 -32 -20 -37 48 -54 105 -47 153 9 62 27 95 86 162 26 30 54 67 61 82 6 15
15 28 19 28 3 0 12 -26 18 -57z m-6207 -17 c3 -8 21 -16 39 -18 25 -2 33 -8
33 -23 0 -16 -9 -21 -43 -26 -50 -6 -65 -18 -60 -50 3 -22 9 -24 71 -29 57 -4
72 -9 88 -29 26 -32 25 -89 -3 -119 -13 -13 -23 -31 -23 -40 0 -10 -9 -18 -22
-20 -13 -2 -23 1 -23 6 0 6 -17 13 -38 17 -52 8 -61 16 -51 42 7 20 11 21 38
12 45 -16 86 7 86 46 0 29 -1 30 -55 33 -80 3 -95 9 -108 37 -18 38 -15 79 8
108 11 14 20 32 20 40 0 14 12 24 31 26 4 1 9 -5 12 -13z m4901 -21 c38 -35
33 -46 -14 -39 -35 6 -40 4 -40 -13 0 -12 13 -25 34 -36 19 -9 37 -25 41 -37
8 -25 -18 -70 -40 -70 -8 0 -15 -4 -15 -10 0 -17 -18 -11 -49 18 -24 22 -28
31 -19 40 9 9 16 8 29 -4 21 -19 53 -15 57 8 2 12 -8 22 -32 32 -20 8 -39 22
-42 31 -9 23 5 65 24 72 9 4 21 12 25 20 10 17 10 17 41 -12z m-3214 -45 c0
-5 -4 -11 -9 -15 -6 -3 -3 -18 7 -34 15 -28 15 -32 -1 -65 -24 -51 -55 -63
-110 -42 -60 22 -75 21 -83 -11 -9 -32 24 -63 66 -63 16 0 30 -7 34 -16 11
-27 -4 -37 -50 -30 -24 3 -46 1 -49 -4 -4 -7 -13 -6 -26 0 -15 9 -17 15 -9 29
7 14 6 22 -5 31 -23 19 -18 65 11 99 29 35 50 38 111 15 47 -18 73 -9 73 27 0
21 -36 49 -62 49 -13 0 -18 8 -18 26 0 24 2 26 34 20 20 -4 37 -2 41 4 7 12
45 -5 45 -20z m2821 -30 l37 -10 -14 -52 c-7 -29 -12 -53 -11 -53 1 -1 23 -12
50 -24 26 -13 68 -42 94 -66 54 -48 53 -49 -18 -106 l-39 -31 -42 35 c-64 51
-105 69 -173 74 -70 5 -99 -8 -132 -56 -32 -47 -31 -110 1 -148 14 -16 75 -55
137 -87 131 -68 180 -113 199 -179 26 -95 -6 -225 -73 -295 -46 -48 -81 -63
-161 -71 l-70 -6 -12 -48 c-7 -27 -14 -50 -16 -52 -3 -3 -128 24 -135 29 -1 1
4 25 11 54 l14 51 -44 22 c-52 25 -141 104 -167 147 l-18 31 54 40 c30 23 58
41 63 41 5 0 21 -20 35 -43 43 -72 150 -127 244 -127 71 0 135 65 135 138 0
65 -21 85 -159 157 -85 43 -142 80 -164 105 -62 67 -67 178 -14 293 43 93 103
137 202 146 l59 6 9 40 c16 76 11 74 118 45z m-1006 -31 c1 -8 6 -24 13 -36
13 -23 8 -48 -16 -76 -13 -15 -25 -17 -69 -11 -49 6 -53 5 -53 -14 0 -23 27
-42 58 -42 31 0 36 -29 6 -36 -14 -4 -28 -4 -31 0 -3 3 -12 1 -19 -5 -16 -13
-37 -2 -30 16 3 8 -2 19 -10 25 -19 16 -18 50 2 78 14 20 23 23 72 20 51 -3
57 -1 57 17 0 14 -10 23 -32 30 -22 6 -33 15 -33 28 0 15 5 18 25 15 14 -3 28
-1 31 4 8 13 29 4 29 -13z m1566 -83 c23 -47 50 -118 60 -158 9 -40 18 -62 18
-50 1 14 6 22 14 20 23 -7 88 -149 112 -241 13 -51 24 -86 24 -79 1 6 6 12 12
12 19 0 4 -166 -21 -231 -40 -109 -100 -168 -210 -210 l-53 -20 7 53 c21 153
26 226 26 363 0 173 -14 222 -23 83 -8 -115 -30 -243 -63 -369 -35 -130 -35
-129 -80 -90 -91 80 -172 203 -189 286 l-7 30 21 -25 21 -25 -10 35 c-13 46
-13 135 1 185 16 60 59 145 72 145 7 1 29 27 49 58 20 31 59 89 87 129 32 47
54 91 62 128 7 30 16 55 20 55 4 0 27 -38 50 -84z m-2888 37 c18 -9 35 -16 40
-15 4 1 30 -10 58 -24 61 -32 85 -73 75 -128 -4 -20 -11 -36 -16 -36 -5 0 -23
20 -40 45 -42 61 -47 57 -9 -10 l31 -55 -36 0 c-77 0 -116 44 -127 145 -4 33
-10 68 -14 78 -9 21 -2 21 38 0z m1665 -73 c37 -23 37 -23 15 -60 -16 -28 -16
-29 15 -64 17 -20 34 -52 38 -72 10 -53 -19 -136 -64 -183 -53 -56 -90 -61
-214 -26 -116 34 -142 29 -173 -28 l-20 -37 20 -37 c12 -23 37 -46 65 -61 38
-20 55 -23 111 -19 l67 4 6 -45 c4 -32 2 -48 -6 -54 -19 -11 -132 -10 -165 3
-19 7 -29 7 -31 0 -2 -6 -11 -20 -21 -32 -16 -20 -17 -20 -54 -3 -41 19 -45
33 -21 68 11 17 12 26 4 31 -6 4 -25 25 -41 47 -41 57 -40 123 2 196 53 93
124 113 259 72 86 -26 116 -25 145 5 39 38 35 94 -9 133 -30 26 -104 52 -150
52 -14 0 -31 74 -21 91 8 13 42 11 104 -5 l53 -14 17 29 c19 34 26 35 69 9z
m-1291 -21 c14 -23 23 -29 38 -24 11 4 50 9 88 12 l67 6 0 -34 c0 -69 -8 -79
-58 -79 -130 0 -214 -109 -146 -189 32 -39 59 -40 193 -5 84 21 105 24 140 14
54 -14 94 -50 125 -112 43 -87 31 -172 -33 -232 l-31 -29 20 -32 c11 -18 20
-35 20 -38 0 -3 -20 -17 -45 -30 l-44 -25 -22 34 c-18 30 -24 33 -47 26 -32
-8 -188 -10 -196 -1 -4 3 -2 29 4 57 l11 51 67 -6 c60 -4 73 -2 122 24 91 48
112 116 55 177 -31 33 -70 34 -172 1 -131 -42 -200 -28 -251 49 -41 61 -52 92
-52 147 0 56 10 81 48 122 l26 28 -18 34 c-21 38 -20 39 21 66 39 25 49 23 70
-12z m557 -34 c3 -9 19 -15 41 -15 21 0 35 -5 35 -12 0 -23 -17 -40 -36 -37
-30 5 -71 -9 -78 -27 -3 -8 -1 -24 4 -35 9 -16 22 -19 74 -19 74 0 95 -16 103
-79 5 -34 2 -43 -22 -65 -16 -15 -25 -32 -22 -40 9 -22 -33 -33 -45 -12 -5 9
-21 16 -37 16 -36 0 -64 21 -56 42 5 14 16 16 53 11 39 -4 50 -2 65 15 12 13
16 28 12 41 -6 18 -14 21 -69 21 -54 0 -66 3 -87 26 -33 35 -33 98 0 125 13
10 21 25 18 33 -3 8 -3 17 0 20 12 12 41 6 47 -9z m-1708 -114 c15 -38 15 -38
57 -30 48 9 137 1 137 -13 0 -5 -5 -29 -11 -54 l-11 -44 -66 0 c-127 0 -199
-63 -173 -150 19 -64 51 -75 171 -60 176 23 231 2 281 -104 49 -104 37 -180
-41 -250 -41 -37 -43 -40 -32 -71 7 -17 12 -35 12 -39 0 -8 -90 -50 -95 -44
-3 2 -11 19 -18 38 l-15 33 -71 -2 c-65 -2 -134 11 -154 28 -5 6 17 95 28 109
1 1 18 -5 38 -13 104 -43 257 20 257 106 0 46 -20 81 -54 98 -26 12 -45 11
-143 -4 -107 -17 -115 -17 -158 -1 -75 29 -125 117 -125 218 0 62 23 111 66
144 32 25 32 26 18 59 -8 19 -14 37 -14 40 0 6 78 43 93 44 4 1 14 -16 23 -38z
m505 30 c3 -1 5 -24 5 -52 -1 -41 -6 -55 -26 -71 -25 -20 -41 -20 -98 3 -28
12 -34 12 -42 -1 -13 -21 12 -54 44 -58 18 -2 26 -9 26 -23 0 -16 -6 -18 -52
-16 -48 3 -53 6 -55 28 0 13 -4 33 -8 44 -9 29 29 75 61 75 14 0 39 -7 56 -16
26 -14 32 -14 45 -2 18 19 7 47 -23 54 -15 4 -24 13 -24 25 0 16 6 18 43 15
23 -2 45 -4 48 -5z m169 -20 c0 -5 9 -11 21 -14 30 -8 14 -27 -22 -27 -42 0
-35 -31 8 -42 55 -14 64 -57 20 -101 -17 -17 -20 -18 -53 -2 -19 9 -34 19 -34
24 0 15 12 20 34 11 13 -4 29 -5 36 0 20 12 4 40 -24 40 -31 0 -60 39 -49 65
14 38 63 73 63 46z m-1125 -21 c4 -6 -4 -19 -16 -29 -14 -11 -20 -24 -16 -34
9 -23 30 -21 52 3 36 40 115 9 102 -40 -3 -11 -1 -22 4 -25 13 -9 0 -31 -19
-32 -9 -1 -28 -4 -41 -5 -31 -4 -37 14 -9 27 25 11 36 41 20 57 -8 8 -21 3
-42 -16 -37 -31 -51 -32 -78 -8 -29 24 -35 94 -9 98 11 1 21 5 25 8 8 9 20 7
27 -4z m5240 -92 c28 -6 53 -15 56 -20 6 -10 131 -64 228 -99 32 -11 81 -19
120 -19 l66 -1 -62 -59 c-35 -32 -95 -77 -135 -99 -40 -23 -65 -41 -55 -41 27
0 21 -14 -24 -55 -52 -47 -147 -108 -204 -132 -43 -17 -59 -33 -33 -33 31 0
-13 -19 -66 -29 -179 -33 -318 13 -400 132 -20 29 -36 55 -36 59 0 3 33 9 73
13 127 11 259 35 380 67 65 17 116 32 114 35 -2 2 -59 -4 -127 -12 -123 -16
-440 -18 -456 -3 -22 23 132 214 220 274 53 36 71 37 41 4 -18 -20 -17 -20 30
1 82 37 157 41 270 17z m-5714 -97 c24 -11 82 -29 128 -41 47 -12 97 -28 112
-36 19 -9 29 -10 31 -3 5 15 117 -42 163 -83 20 -17 49 -54 65 -81 25 -44 29
-47 32 -26 6 42 48 -84 54 -164 5 -64 -7 -192 -20 -204 -16 -17 -266 187 -385
313 l-84 89 62 -85 c93 -128 166 -213 259 -301 l84 -79 -39 -17 c-60 -27 -195
-24 -255 6 -55 27 -123 84 -170 143 -27 35 -29 41 -12 36 18 -5 17 1 -13 57
-33 63 -73 195 -73 243 0 25 0 25 21 6 12 -10 20 -14 17 -9 -2 6 -16 36 -31
67 -30 65 -57 162 -57 207 l0 32 33 -25 c18 -14 53 -34 78 -45z m-428 19 c22
-18 26 -30 29 -83 3 -59 4 -62 30 -65 35 -4 52 27 44 78 -5 32 -3 38 14 43 16
4 22 -2 32 -36 6 -23 16 -48 21 -54 12 -17 2 -43 -18 -43 -8 0 -24 -9 -35 -20
-26 -26 -80 -26 -111 -1 -19 15 -25 32 -29 83 -5 60 -6 63 -32 66 -22 3 -30
-2 -38 -23 -5 -14 -9 -35 -7 -48 1 -16 -4 -23 -20 -25 -20 -3 -23 1 -23 32 0
25 -4 36 -15 36 -16 0 -19 9 -9 34 3 8 12 12 20 9 8 -3 24 4 35 16 26 27 78
28 112 1z m2213 -20 c34 0 44 -6 67 -40 27 -40 21 -68 -23 -109 -43 -39 -49
-61 -25 -81 13 -11 22 -10 50 3 18 9 36 25 40 36 7 22 14 25 39 15 17 -7 11
-30 -16 -60 -10 -12 -16 -28 -13 -37 4 -10 -1 -19 -13 -26 -15 -8 -21 -7 -26
4 -4 10 -14 13 -35 9 -25 -5 -36 -1 -61 24 -42 42 -40 74 10 128 45 49 47 56
24 78 -21 22 -28 20 -67 -14 -29 -25 -37 -27 -51 -17 -16 12 -16 14 4 40 12
15 19 34 16 42 -8 21 26 38 40 20 6 -8 24 -15 40 -15z m-2762 -10 c14 -5 63
-10 109 -11 85 -1 149 -20 176 -52 7 -9 17 -14 22 -11 13 8 48 -75 55 -130 l7
-46 -44 15 c-24 9 -73 32 -109 51 l-65 35 35 -30 c19 -17 61 -45 92 -63 32
-18 58 -36 58 -40 0 -15 -61 -38 -101 -38 -52 0 -124 33 -141 65 -7 12 -25 43
-40 67 -15 24 -29 53 -31 64 -1 11 -12 36 -24 56 -22 38 -37 78 -29 78 2 0 16
-4 30 -10z m5926 -235 c0 -10 10 -15 29 -15 33 0 44 -11 35 -33 -4 -11 -19
-16 -46 -15 -46 0 -61 -11 -56 -43 3 -21 9 -25 62 -29 45 -4 62 -11 77 -29 26
-31 25 -83 -2 -107 -12 -10 -25 -29 -30 -41 -10 -26 -34 -30 -43 -8 -3 8 -16
15 -29 15 -33 0 -60 22 -51 43 5 14 13 16 40 11 19 -3 45 -3 60 0 20 5 25 12
22 34 -3 25 -7 27 -62 32 -45 4 -62 11 -77 29 -26 32 -25 85 3 113 13 13 23
27 24 33 2 22 5 25 24 25 11 0 20 -7 20 -15z m-2146 -57 c-21 -78 -17 -140 16
-306 17 -83 30 -166 30 -184 0 -24 3 -29 9 -19 15 23 24 -51 18 -138 -7 -101
-38 -195 -86 -264 -43 -61 -44 -66 -6 -41 46 30 26 -5 -38 -69 -76 -74 -197
-145 -313 -183 -46 -15 -86 -25 -88 -23 -7 7 13 153 35 261 28 138 81 319 133
450 25 62 43 114 42 115 -5 6 -155 -295 -195 -389 -44 -108 -105 -292 -116
-350 -4 -21 -11 -38 -16 -38 -22 0 -122 118 -151 178 -32 65 -33 71 -33 193 0
122 -1 126 -20 119 -14 -5 -19 -15 -17 -33 2 -20 -3 -25 -29 -31 -38 -7 -49
-1 -49 28 0 19 -7 25 -38 30 -36 5 -92 39 -92 54 0 4 9 18 18 30 l18 24 35
-21 c70 -43 162 -18 162 44 0 40 -31 61 -100 69 -80 9 -119 34 -133 87 -20 73
10 148 66 169 18 7 24 17 24 40 0 28 3 30 35 30 30 0 35 -3 35 -24 0 -18 7
-25 28 -30 44 -11 82 -28 82 -38 0 -5 -7 -19 -15 -32 -15 -22 -17 -23 -56 -10
-67 23 -129 -4 -129 -56 0 -37 19 -50 97 -66 73 -15 111 -37 130 -74 l12 -24
12 27 c13 30 29 27 29 -5 0 -15 11 -5 41 38 72 104 192 216 298 279 14 8 12
-12 -6 -62 -3 -10 14 10 40 44 58 78 146 164 217 214 74 51 80 50 64 -13z
m-3077 -33 c105 -31 185 -105 228 -211 28 -68 25 -71 -57 -54 -29 6 -168 13
-308 15 l-255 4 152 -18 c84 -11 187 -27 230 -36 81 -18 245 -64 251 -70 8 -8
-56 -77 -113 -124 -65 -52 -138 -93 -197 -109 -42 -11 -47 -7 -20 15 16 13 16
14 -3 9 -60 -15 -98 -16 -156 -6 -70 13 -193 66 -184 80 3 5 -7 16 -23 24 -16
8 -62 40 -103 72 -83 63 -181 114 -220 114 -41 0 -42 11 -3 38 47 32 140 69
229 92 42 11 59 19 43 19 -39 1 -35 12 15 42 66 39 136 66 215 82 68 14 103
27 74 27 -7 0 -12 5 -12 11 0 16 147 5 217 -16z m3673 -88 c0 -10 4 -16 9 -13
9 6 51 -82 51 -108 0 -9 5 -16 11 -16 17 0 4 -93 -18 -131 -16 -27 -89 -77
-99 -67 -1 2 1 33 6 68 5 36 9 88 8 115 0 28 -2 39 -4 25 -12 -80 -38 -191
-46 -196 -13 -8 -56 34 -78 77 -13 25 -18 51 -15 87 4 58 11 73 71 155 24 32
44 67 44 76 0 35 15 31 37 -11 12 -24 22 -51 23 -61z m-360 -157 c0 -5 16 -12
35 -16 36 -6 39 -11 29 -38 -4 -11 -14 -13 -34 -10 -35 7 -70 -11 -70 -36 0
-26 29 -40 84 -40 38 0 48 -4 62 -26 26 -39 22 -83 -9 -110 -17 -14 -25 -29
-21 -38 3 -9 2 -16 -4 -16 -6 0 -17 -3 -26 -6 -10 -4 -16 -1 -16 9 0 9 -13 17
-32 21 -52 10 -62 20 -49 45 10 17 16 19 31 11 28 -15 61 -12 82 7 22 20 22
27 2 47 -10 10 -33 16 -63 16 -61 0 -86 24 -86 82 0 31 6 44 23 56 12 8 22 23
22 33 0 12 7 19 20 19 11 0 20 -4 20 -10z m1625 -4 c16 -12 17 -18 8 -39 -7
-14 -9 -27 -5 -29 11 -4 66 -78 61 -81 -2 -2 -17 -8 -32 -15 -27 -12 -31 -10
-65 29 -47 52 -93 58 -124 17 l-21 -26 21 -34 c12 -18 37 -48 57 -67 56 -54
59 -113 11 -176 -34 -44 -77 -61 -122 -47 -30 9 -36 8 -44 -9 -13 -23 -28 -24
-58 -4 -21 15 -21 17 -6 40 10 15 12 25 6 25 -14 0 -62 81 -62 104 0 9 12 21
26 26 36 14 44 13 44 -9 0 -39 71 -101 116 -101 27 0 54 30 54 59 0 19 -15 42
-50 76 -67 66 -78 101 -50 160 32 65 63 87 123 84 38 -2 51 1 58 14 12 21 29
22 54 3z m643 -11 c76 0 145 -6 172 -14 41 -12 43 -14 23 -24 -18 -10 1 -12
95 -13 70 -1 135 -7 160 -15 l44 -14 -54 -35 c-38 -25 -78 -68 -139 -150 -48
-63 -85 -118 -83 -121 5 -9 -83 -90 -126 -116 -20 -12 -58 -27 -85 -34 -84
-20 -82 -19 -65 -29 26 -17 -112 -11 -171 6 -59 18 -184 78 -193 93 -13 21
271 188 426 251 32 13 56 25 54 27 -13 13 -328 -97 -445 -156 -33 -17 -63 -31
-66 -31 -3 0 -5 24 -5 54 0 100 47 190 132 253 59 43 192 97 196 80 2 -9 40
-12 130 -12z m-4312 -61 c19 -9 37 -20 39 -24 3 -5 -28 -25 -67 -45 -112 -55
-138 -81 -43 -41 44 19 93 37 109 40 28 7 28 7 21 -31 -4 -21 -18 -58 -31 -83
-21 -39 -34 -49 -84 -69 -52 -21 -70 -23 -137 -17 -43 3 -93 2 -110 -3 -21 -6
-33 -6 -33 0 0 13 46 86 60 94 6 3 8 10 5 14 -2 5 10 30 28 56 18 27 36 56 41
66 14 25 86 58 129 58 22 1 54 -6 73 -15z m5076 -16 c1 -18 3 -51 5 -73 2 -22
5 -79 6 -128 1 -48 5 -87 10 -87 15 0 -43 -98 -73 -123 -34 -29 -101 -51 -128
-43 -15 5 -11 20 35 113 57 115 72 163 23 73 -37 -68 -102 -154 -115 -153 -5
0 -18 17 -28 37 -20 42 -36 163 -20 153 6 -4 13 6 16 22 9 43 50 85 142 145
46 30 89 64 95 75 16 31 30 26 32 -11z m-2329 -162 c3 -7 28 -15 60 -19 64 -6
173 -48 170 -65 -2 -6 9 -14 25 -17 63 -13 110 -28 151 -47 l44 -21 -50 -19
c-46 -17 -87 -48 -216 -163 -55 -50 -119 -75 -189 -75 -30 0 -47 -4 -43 -10 3
-6 -4 -10 -18 -10 -34 0 -154 62 -202 105 -38 33 -39 36 -21 50 26 20 189 73
294 95 52 11 74 19 54 19 -57 2 -216 -19 -295 -38 l-77 -18 0 22 c0 12 7 38
15 58 33 79 101 130 205 153 73 16 87 16 93 0z m-4835 -40 c20 -33 20 -33 68
-23 95 19 176 -28 229 -133 27 -53 31 -102 14 -147 -6 -15 -48 -67 -95 -114
-77 -79 -84 -90 -84 -127 0 -53 43 -102 91 -102 78 0 169 75 192 158 7 25 16
41 23 38 7 -3 31 -10 54 -17 39 -12 41 -15 36 -42 -9 -44 -34 -91 -72 -135
-19 -22 -34 -43 -34 -47 0 -4 9 -20 20 -36 l21 -28 -48 -31 c-43 -26 -49 -28
-58 -14 -33 53 -39 57 -80 45 -58 -16 -93 -14 -140 9 -49 24 -102 92 -121 157
-23 77 -5 121 91 222 89 95 104 125 80 170 -51 100 -169 73 -256 -59 l-15 -23
-52 18 c-29 11 -52 22 -52 25 0 10 52 85 82 116 l29 31 -21 36 -21 35 43 26
c24 14 46 26 50 26 3 0 15 -15 26 -34z m1496 2 c3 -13 1 -25 -6 -27 -23 -8
-49 -43 -46 -64 5 -33 39 -32 82 3 49 38 79 38 118 0 25 -26 30 -37 25 -64 -3
-19 -1 -38 5 -44 15 -15 -10 -45 -29 -38 -8 3 -28 -1 -45 -10 -35 -18 -58 -12
-58 16 0 13 7 20 19 20 23 0 63 47 59 68 -2 8 -11 20 -20 26 -13 8 -25 4 -57
-22 -49 -39 -88 -41 -125 -7 -21 19 -27 33 -25 58 2 18 0 37 -4 44 -12 19 4
44 24 38 10 -4 29 1 41 9 30 21 35 20 42 -6z m948 -99 c62 -14 132 -47 178
-86 30 -25 110 -136 110 -153 0 -4 -55 -10 -122 -13 -152 -7 -304 -30 -450
-67 l-113 -29 80 7 c116 10 576 7 603 -4 22 -9 22 -10 -28 -86 -61 -94 -148
-182 -224 -227 -59 -35 -82 -36 -51 -1 18 19 16 19 -31 -2 -65 -31 -240 -33
-322 -5 -28 10 -50 22 -47 27 3 5 -12 14 -32 21 -21 6 -69 28 -108 47 -121 60
-190 82 -260 82 -36 0 -65 4 -65 10 0 31 201 165 307 205 l38 15 -37 -6 c-52
-8 -48 6 15 59 70 60 144 104 229 137 61 24 68 29 52 38 -17 10 -17 11 -3 17
61 23 203 30 281 14z m-1168 -104 c67 -18 131 -59 170 -109 l27 -35 -23 -5
c-98 -21 -216 -53 -284 -77 -74 -26 -235 -97 -189 -84 223 67 515 107 515 71
0 -37 -87 -185 -141 -238 -55 -56 -84 -73 -73 -44 3 9 -13 5 -47 -12 -66 -33
-214 -44 -263 -19 -67 33 -238 69 -314 65 -39 -1 -72 0 -72 3 0 25 103 127
185 183 25 17 31 25 18 21 -15 -4 -23 -2 -23 5 0 21 143 156 200 188 30 18 47
32 38 32 -10 0 -18 4 -18 9 0 9 117 48 165 54 58 8 71 7 129 -8z m4808 -210
c15 -15 32 -23 41 -19 10 3 20 -3 27 -17 10 -18 9 -24 -4 -31 -9 -5 -16 -18
-16 -29 0 -32 -26 -74 -55 -87 -50 -23 -75 -15 -124 38 -48 52 -70 60 -91 35
-22 -27 10 -93 51 -107 11 -4 12 -9 1 -32 -12 -28 -13 -28 -40 -10 -15 10 -32
24 -38 32 -6 9 -20 13 -32 10 -16 -4 -22 0 -27 20 -4 18 -2 28 9 34 10 5 16
22 16 42 0 41 34 75 84 83 35 5 40 3 86 -46 49 -52 67 -60 88 -39 20 20 14 57
-13 84 -20 20 -23 29 -15 45 14 25 22 24 52 -6z m-4379 -263 c21 -19 22 -44 1
-84 -14 -28 -14 -32 0 -46 14 -14 17 -14 36 3 11 10 20 29 20 42 0 17 6 23 21
23 18 0 20 -5 15 -57 -2 -32 -5 -58 -5 -58 -1 0 -23 -1 -50 -2 -40 -2 -52 2
-72 23 -23 25 -23 26 -7 72 12 32 14 50 7 58 -14 17 -39 6 -50 -22 -4 -13 -17
-24 -27 -24 -15 0 -18 8 -17 43 1 39 3 42 28 43 15 1 30 4 34 8 9 9 44 -3 66
-22z m-1581 -148 c5 -4 -14 -31 -44 -63 -81 -84 -100 -113 -38 -55 30 28 68
59 83 69 40 26 49 8 44 -79 -4 -67 -5 -69 -56 -117 -29 -27 -59 -50 -67 -50
-18 -2 -19 -2 -85 -22 -31 -9 -68 -26 -82 -38 l-27 -20 0 25 c0 13 5 37 11 53
6 15 11 42 10 58 0 17 7 55 16 85 9 30 16 60 15 66 -3 13 55 68 93 89 29 15
101 15 127 -1z m773 -26 c34 6 33 -21 0 -36 -14 -6 -25 -18 -25 -26 0 -12 10
-14 48 -9 63 7 79 -9 66 -70 -5 -23 -15 -42 -22 -41 -6 1 -25 2 -42 3 -33 1
-44 31 -12 31 10 0 27 6 38 14 30 23 5 42 -36 28 -17 -6 -37 -9 -44 -6 -22 8
-38 53 -26 73 5 10 6 21 2 25 -3 4 0 11 8 16 8 5 16 6 18 1 1 -4 14 -6 27 -3z
m799 -59 c47 -13 92 -57 101 -99 5 -25 12 -30 36 -30 27 0 29 -3 29 -35 0 -19
1 -38 3 -42 1 -5 -12 -9 -28 -11 -27 -3 -33 -9 -44 -46 -7 -24 -25 -59 -41
-77 l-29 -34 -32 32 -32 31 26 32 c64 75 39 200 -39 200 -40 0 -62 -31 -84
-120 -23 -95 -45 -125 -102 -141 -87 -23 -188 23 -203 91 -6 26 -11 30 -41 30
-34 0 -34 0 -34 45 0 45 0 45 35 45 29 0 35 4 35 20 0 24 37 100 48 100 4 -1
20 -11 35 -23 27 -23 27 -24 12 -60 -8 -20 -15 -56 -15 -81 0 -36 5 -48 26
-65 60 -47 101 -15 129 100 31 125 98 169 209 138z"/>
<path d="M15512 22000 c0 -14 2 -19 5 -12 2 6 2 18 0 25 -3 6 -5 1 -5 -13z"/>
<path d="M15700 21495 c0 -17 50 -29 63 -16 6 6 9 11 6 11 -2 0 -19 4 -37 9
-24 7 -32 7 -32 -4z"/>
<path d="M16444 21896 c-10 -8 -16 -17 -13 -20 3 -4 17 2 30 13 27 23 13 28
-17 7z"/>
<path d="M16711 21561 c-13 -10 -19 -21 -14 -24 10 -7 50 29 42 37 -2 3 -15
-3 -28 -13z"/>
<path d="M15300 21893 c0 -5 9 -18 20 -28 11 -10 20 -14 20 -8 0 5 -9 18 -20
28 -11 10 -20 14 -20 8z"/>
<path d="M14980 21592 c0 -10 33 -42 44 -42 9 0 -27 49 -36 50 -5 0 -8 -4 -8
-8z"/>
<path d="M15695 21220 c-3 -6 1 -7 9 -4 18 7 21 14 7 14 -6 0 -13 -4 -16 -10z"/>
<path d="M17941 20754 c0 -11 3 -14 6 -6 3 7 2 16 -1 19 -3 4 -6 -2 -5 -13z"/>
<path d="M18314 20275 c11 -8 25 -15 30 -15 6 0 2 7 -8 15 -11 8 -25 15 -30
15 -6 0 -2 -7 8 -15z"/>
<path d="M18060 19912 c0 -5 12 -17 26 -27 17 -11 25 -13 22 -4 -5 16 -48 44
-48 31z"/>
<path d="M13951 20601 c-21 -13 5 -24 29 -11 11 6 20 13 20 15 0 8 -34 5 -49
-4z"/>
<path d="M12570 20120 c0 -5 7 -7 15 -4 8 4 15 8 15 10 0 2 -7 4 -15 4 -8 0
-15 -4 -15 -10z"/>
<path d="M13990 20136 c0 -2 8 -10 18 -17 15 -13 16 -12 3 4 -13 16 -21 21
-21 13z"/>
<path d="M16895 20232 c-7 -18 -11 -16 53 -30 68 -15 72 -15 72 3 0 18 -8 22
-72 34 -38 7 -48 5 -53 -7z"/>
<path d="M16685 19342 c-3 -3 -5 -13 -5 -23 0 -24 108 -49 121 -27 5 7 9 16 9
19 0 9 -118 38 -125 31z"/>
<path d="M16270 20131 c0 -14 69 -51 75 -41 3 5 -9 19 -27 30 -36 22 -48 25
-48 11z"/>
<path d="M15955 19581 c-5 -10 49 -51 68 -51 18 0 4 28 -20 41 -16 7 -31 15
-35 17 -3 2 -9 -2 -13 -7z"/>
<path d="M15048 20108 c-53 -31 -51 -55 2 -28 22 11 40 27 40 35 0 18 3 19
-42 -7z"/>
<path d="M15383 19499 c-33 -21 -39 -30 -27 -42 9 -9 85 36 81 47 -6 17 -22
16 -54 -5z"/>
<path d="M15685 19830 c-16 -7 -17 -9 -3 -9 9 -1 20 4 23 9 7 11 7 11 -20 0z"/>
<path d="M13868 19954 c-27 -14 -38 -34 -19 -34 19 0 81 31 81 40 0 14 -31 12
-62 -6z"/>
<path d="M14148 19293 c-35 -14 -53 -43 -28 -43 26 0 80 30 80 44 0 19 -5 19
-52 -1z"/>
<path d="M12693 19715 c-3 -9 -3 -18 -1 -21 3 -3 8 4 11 16 6 23 -1 27 -10 5z"/>
<path d="M14855 19560 c-3 -6 1 -7 9 -4 18 7 21 14 7 14 -6 0 -13 -4 -16 -10z"/>
<path d="M17978 19283 c7 -3 16 -2 19 1 4 3 -2 6 -13 5 -11 0 -14 -3 -6 -6z"/>
<path d="M14890 19280 c0 -6 11 -8 28 -4 39 10 40 14 4 14 -18 0 -32 -5 -32
-10z"/>
<path d="M14930 18830 c0 -12 8 -12 35 0 18 8 17 9 -7 9 -16 1 -28 -3 -28 -9z"/>
<path d="M17604 19185 c11 -8 25 -15 30 -15 6 0 2 7 -8 15 -11 8 -25 15 -30
15 -6 0 -2 -7 8 -15z"/>
<path d="M17360 18823 c0 -7 32 -32 43 -33 17 0 5 18 -18 28 -14 6 -25 9 -25
5z"/>
<path d="M11879 18881 c-19 -10 -36 -26 -38 -36 -3 -16 1 -15 35 5 51 30 58
37 46 43 -5 4 -24 -2 -43 -12z"/>
<path d="M12250 18267 c-19 -11 -37 -22 -39 -24 -3 -2 0 -8 6 -14 9 -9 21 -6
47 11 20 12 36 25 36 30 0 19 -17 18 -50 -3z"/>
<path d="M13150 17865 c0 -19 5 -35 10 -35 6 0 10 16 10 35 0 19 -4 35 -10 35
-5 0 -10 -16 -10 -35z"/>
<path d="M13671 17888 c1 -7 5 -24 9 -38 7 -22 8 -21 9 13 1 20 -3 37 -9 37
-5 0 -10 -6 -9 -12z"/>
<path d="M19010 18582 c0 -8 52 -42 64 -42 15 0 3 17 -23 33 -32 19 -41 21
-41 9z"/>
<path d="M15485 18240 c3 -5 18 -10 32 -10 32 0 28 5 -10 14 -19 4 -26 3 -22
-4z"/>
<path d="M17307 18145 c-4 -49 -10 -113 -13 -142 -5 -48 -4 -51 15 -46 19 5
21 13 20 77 -1 39 -4 100 -8 136 l-7 65 -7 -90z"/>
<path d="M18289 18138 c-74 -88 -74 -88 -56 -88 13 0 63 63 101 128 15 25 -2
10 -45 -40z"/>
<path d="M16386 17936 c-50 -70 -52 -76 -33 -76 6 0 29 32 49 70 20 39 35 70
33 70 -2 0 -24 -29 -49 -64z"/>
<path d="M14370 17818 c8 -9 52 -45 96 -81 67 -53 86 -64 109 -59 26 4 23 8
-46 52 -101 64 -177 106 -159 88z"/>
<path d="M15440 17790 c20 -13 50 -13 50 0 0 6 -15 10 -32 10 -25 0 -29 -3
-18 -10z"/>
<path d="M6260 18394 c0 -69 37 -632 60 -929 233 -2921 794 -4992 1735 -6410
354 -535 753 -972 1253 -1373 330 -265 609 -451 1337 -897 714 -437 1037 -675
1365 -1004 347 -348 594 -713 794 -1174 104 -238 217 -585 281 -860 l27 -118
47 27 c83 49 284 185 385 263 727 555 1196 1312 1375 2216 165 836 64 1786
-286 2670 -65 166 -224 497 -312 650 -126 220 -307 481 -460 664 -142 169
-184 208 -295 271 -165 94 -326 193 -502 311 -417 277 -736 528 -1534 1204
-548 464 -865 717 -1213 969 -140 101 -177 125 -177 113 0 -3 -9 -57 -20 -121
-63 -370 -39 -734 70 -1051 79 -227 198 -444 427 -776 359 -521 476 -725 581
-1014 43 -118 109 -371 100 -380 -14 -15 -475 146 -711 246 -655 280 -1025
585 -1311 1083 -122 211 -191 364 -412 912 -295 733 -410 999 -603 1399 -466
960 -1114 1990 -1915 3044 l-86 113 0 -48z"/>
<path d="M24604 18213 c-741 -989 -1302 -1879 -1757 -2788 -227 -456 -345
-723 -634 -1440 -228 -564 -263 -646 -369 -856 -94 -185 -192 -341 -295 -470
-86 -108 -279 -295 -386 -374 -296 -217 -694 -408 -1211 -580 -112 -37 -206
-64 -210 -61 -9 10 34 192 74 313 101 305 220 522 541 988 217 316 300 451
383 620 206 418 256 806 174 1323 -10 56 -20 102 -24 102 -10 0 -307 -214
-449 -323 -188 -144 -540 -429 -786 -637 -787 -665 -978 -820 -1280 -1045
-316 -235 -590 -416 -883 -583 -127 -72 -139 -82 -228 -181 -386 -436 -699
-969 -914 -1559 -329 -904 -398 -1865 -194 -2702 109 -445 302 -876 551 -1227
229 -324 545 -641 877 -882 106 -76 336 -225 340 -219 2 1 15 57 31 123 40
172 125 458 185 620 207 556 468 976 850 1369 355 365 635 570 1496 1098 697
428 1008 641 1339 918 965 806 1629 1856 2114 3343 417 1281 696 2956 816
4897 8 135 17 289 21 343 3 53 4 97 2 97 -2 0 -81 -102 -174 -227z"/>
<path d="M26862 24455 c-211 -67 -385 -124 -386 -126 -5 -5 341 -443 353 -447
4 -1 100 152 211 340 227 383 212 358 208 357 -2 0 -175 -56 -386 -124z"/>
<path d="M3937 23902 c63 -95 330 -491 380 -564 l60 -87 167 236 c92 129 165
237 163 240 -4 3 -773 202 -785 203 -2 0 4 -12 15 -28z"/>
<path d="M28734 20693 l-131 -4 104 -267 c58 -147 106 -268 108 -270 3 -4 595
537 595 543 0 5 -436 3 -676 -2z"/>
<path d="M2125 20555 c-58 -20 -127 -100 -159 -182 -72 -190 -192 -565 -182
-569 50 -19 490 -163 492 -161 6 8 148 449 169 527 32 122 33 202 2 261 -56
106 -207 164 -322 124z"/>
<path d="M1847 17833 c-208 -53 -375 -99 -370 -103 18 -16 706 -371 710 -366
5 4 73 523 73 554 0 6 -8 12 -17 11 -10 0 -188 -44 -396 -96z"/>
<path d="M3190 9399 c-135 -150 -257 -286 -271 -303 l-27 -32 402 44 c220 24
402 45 404 47 4 4 -252 515 -258 515 -3 0 -115 -122 -250 -271z"/>
<path d="M27821 8934 c-78 -136 -140 -249 -137 -251 6 -7 768 -124 783 -121
12 3 -476 608 -497 616 -4 1 -71 -108 -149 -244z"/>
<path d="M4085 7521 c-81 -20 -170 -93 -200 -163 -8 -21 -15 -58 -15 -82 0
-91 26 -135 366 -609 l40 -56 210 149 c115 83 210 154 212 158 1 5 -52 85
-119 178 -238 331 -294 393 -383 419 -54 16 -65 17 -111 6z"/>
<path d="M7310 4301 c-84 -27 -158 -101 -186 -183 -30 -90 -7 -205 53 -273 57
-64 413 -330 433 -323 5 2 84 108 176 237 l166 235 -28 20 c-131 98 -303 213
-369 247 -68 36 -90 43 -150 45 -38 2 -81 0 -95 -5z"/>
<path d="M21850 2872 c-352 -161 -413 -200 -454 -287 -25 -51 -18 -162 12
-222 33 -64 88 -111 149 -129 62 -18 107 -13 198 21 57 21 535 233 544 241 4
4 -90 220 -173 396 l-41 87 -235 -107z"/>
<path d="M9653 3785 c-193 -43 -350 -190 -477 -442 -60 -120 -92 -217 -107
-324 -34 -244 88 -457 328 -574 253 -123 519 -65 699 153 151 183 254 437 254
626 0 251 -158 463 -409 546 -82 27 -207 34 -288 15z"/>
<path d="M19402 2372 c-189 -54 -262 -78 -258 -88 3 -7 112 -155 243 -330 159
-212 239 -311 240 -298 6 43 63 741 63 767 0 15 -5 27 -12 26 -7 -1 -131 -35
-276 -77z"/>
</g>
</svg>
